<?xml version="1.0" standalone="no"?>
<!DOCTYPE svg PUBLIC "-//W3C//DTD SVG 20010904//EN"
 "http://www.w3.org/TR/2001/REC-SVG-20010904/DTD/svg10.dtd">
<svg version="1.0" xmlns="http://www.w3.org/2000/svg"
 width="260.000000pt" height="260.000000pt" viewBox="0 0 260.000000 260.000000"
 preserveAspectRatio="xMidYMid meet">
<metadata>
Created by potrace 1.11, written by Peter Selinger 2001-2013
</metadata>
<g transform="translate(0.000000,260.000000) scale(0.100000,-0.100000)"
fill="#000000" stroke="none">
<path d="M10 2593 c0 -3 9 -13 20 -23 20 -17 20 -32 22 -1265 l3 -1247 1248
-2 1248 -2 24 -28 24 -29 -4 1294 c-3 711 -7 1295 -10 1297 -6 7 -2575 12
-2575 5z m2034 -544 c6 -6 17 -819 11 -819 -3 0 -192 186 -421 414 l-415 414
411 -3 c226 -1 412 -4 414 -6z m-774 -719 c314 -314 570 -572 570 -573 0 -2
-259 -4 -575 -5 l-574 -1 0 574 c0 316 2 575 4 575 3 0 262 -257 575 -570z"/>
</g>
</svg>
