<?xml version="1.0" encoding="utf-8"?>
<svg version="1.1" height="100%" width="100%" xmlns="http://www.w3.org/2000/svg">
  <g style="" transform="matrix(0.55421, 0, 0, 0.620903, 18.856455, 4.170066)">
    <g>
      <polygon fill="#FFC77B" points="50.531 84.8 50.5 12 22.9 12 22.9 98.8 22.9 112.668 36.7 112.7 131.916 112.732 131.4 84.8"/>
      <path d="M28.3,62.1h-4.7v0.2h4.7V62.1z M23.6,67.3v0.2h4.7H31v-0.2h-2.7H23.6z M28.3,64.7h-4.7v0.2h4.7V64.7z M28.3,70.2h-4.7v0.2    h4.7V70.2z M28.3,80.6h-4.7v0.2h4.7V80.6z M28.3,59.5h-4.7v0.2h4.7V59.5z M28.3,78h-4.7v0.2h4.7V78z M28.3,75.4h-4.7v0.2h4.7V75.4    z M28.3,72.8h-4.7v0.2h4.7V72.8z M28.3,54.3h-4.7v0.2h4.7V54.3z M28.3,40.5h-4.7v0.2h4.7V40.5z M28.3,35.3h-4.7v0.2h4.7V35.3z     M28.3,37.9h-4.7v0.2h4.7V37.9z M28.3,43.1h-4.7v0.2h4.7V43.1z M28.3,45.7h-4.7V46h4.7V45.7z M23.6,51.4H31v-0.2h-7.4V51.4z     M28.3,56.9h-4.7v0.2h4.7V56.9z M28.3,48.3h-4.7v0.2h4.7V48.3z M28.3,83.2h-4.7v0.2h4.7V83.2z M23.6,110.8h4.7v-0.2h-4.7V110.8z     M28.3,15.4h-4.7v0.2h4.7V15.4z M23.6,86.3H31v-0.2h-7.4V86.3z M28.3,20.6h-4.7v0.2h4.7V20.6z M28.3,18h-4.7v0.2h4.7V18z     M28.3,28.4h-4.7v0.2h4.7V28.4z M28.3,23.2h-4.7v0.2h4.7V23.2z M28.3,25.8h-4.7v0.2h4.7V25.8z M23.6,31.9v0.2H31v-0.2H23.6z     M28.3,91.8h-4.7V92h4.7V91.8z M28.3,94.4h-4.7v0.2h4.7V94.4z M28.3,97h-4.7v0.2h4.7V97z M23.6,108.2h4.7V108h-4.7V108.2z     M28.3,89.2h-4.7v0.2h4.7V89.2z M28.3,99.6h-4.7v0.2h4.7V99.6z M23.6,105.6H31v-0.2h-7.4V105.6z M28.3,102.2h-4.7v0.2h4.7V102.2z"/>
      <path opacity="0.66" fill="#FF993D" d="M 22.917 14.976 L 22.875 21.871 L 50.48 47.85 L 50.564 12.078 L 22.894 12.078 L 22.917 14.976 Z M 131.401 84.822 L 89.933 84.822 L 119.61 112.7 L 132.5 112.7 L 131.401 84.822 Z" style=""/>
      <g>
        <path fill="#FD4F57" d="M 20.696 10.642 L 132.768 114.983 L 132.376 10.976 L 20.696 10.642 Z M 109.518 66.035 L 73.236 32.462 L 109 32.572 L 109.518 66.035 Z"/>
      </g>
      <path d="M 129.535 60.787 L 125.761 60.787 L 125.761 60.587 L 129.535 60.587 L 129.535 60.787 Z M 125.761 55.596 L 125.761 55.396 L 129.535 55.396 L 131.703 55.396 L 131.703 55.596 L 129.535 55.596 L 125.761 55.596 Z M 129.535 58.191 L 125.761 58.191 L 125.761 57.992 L 129.535 57.992 L 129.535 58.191 Z M 129.535 52.701 L 125.761 52.701 L 125.761 52.501 L 129.535 52.501 L 129.535 52.701 Z M 129.535 42.318 L 125.761 42.318 L 125.761 42.119 L 129.535 42.119 L 129.535 42.318 Z M 129.535 63.382 L 125.761 63.382 L 125.761 63.183 L 129.535 63.183 L 129.535 63.382 Z M 129.535 44.914 L 125.761 44.914 L 125.761 44.714 L 129.535 44.714 L 129.535 44.914 Z M 129.535 47.51 L 125.761 47.51 L 125.761 47.31 L 129.535 47.31 L 129.535 47.51 Z M 129.535 50.105 L 125.761 50.105 L 125.761 49.906 L 129.535 49.906 L 129.535 50.105 Z M 129.535 68.574 L 125.761 68.574 L 125.761 68.374 L 129.535 68.374 L 129.535 68.574 Z M 129.535 82.35 L 125.761 82.35 L 125.761 82.15 L 129.535 82.15 L 129.535 82.35 Z M 129.535 87.541 L 125.761 87.541 L 125.761 87.342 L 129.535 87.342 L 129.535 87.541 Z M 129.535 84.946 L 125.761 84.946 L 125.761 84.746 L 129.535 84.746 L 129.535 84.946 Z M 129.535 79.754 L 125.761 79.754 L 125.761 79.555 L 129.535 79.555 L 129.535 79.754 Z M 129.535 77.159 L 125.761 77.159 L 125.761 76.859 L 129.535 76.859 L 129.535 77.159 Z M 125.761 71.469 L 131.703 71.469 L 131.703 71.668 L 125.761 71.668 L 125.761 71.469 Z M 129.535 65.978 L 125.761 65.978 L 125.761 65.778 L 129.535 65.778 L 129.535 65.978 Z M 129.535 74.563 L 125.761 74.563 L 125.761 74.364 L 129.535 74.364 L 129.535 74.563 Z M 129.535 39.723 L 125.761 39.723 L 125.761 39.523 L 129.535 39.523 L 129.535 39.723 Z M 125.761 12.17 L 129.535 12.17 L 129.535 12.37 L 125.761 12.37 L 125.761 12.17 Z M 129.535 107.407 L 125.761 107.407 L 125.761 107.208 L 129.535 107.208 L 129.535 107.407 Z M 125.761 36.628 L 131.703 36.628 L 131.703 36.828 L 125.761 36.828 L 125.761 36.628 Z M 129.535 102.216 L 125.761 102.216 L 125.761 102.016 L 129.535 102.016 L 129.535 102.216 Z M 129.535 104.812 L 125.761 104.812 L 125.761 104.612 L 129.535 104.612 L 129.535 104.812 Z M 129.535 94.429 L 125.761 94.429 L 125.761 94.23 L 129.535 94.23 L 129.535 94.429 Z M 129.535 99.621 L 125.761 99.621 L 125.761 99.421 L 129.535 99.421 L 129.535 99.621 Z M 129.535 97.025 L 125.761 97.025 L 125.761 96.825 L 129.535 96.825 L 129.535 97.025 Z M 125.761 90.935 L 125.761 90.736 L 131.703 90.736 L 131.703 90.935 L 125.761 90.935 Z M 129.535 31.138 L 125.761 31.138 L 125.761 30.938 L 129.535 30.938 L 129.535 31.138 Z M 129.535 28.542 L 125.761 28.542 L 125.761 28.342 L 129.535 28.342 L 129.535 28.542 Z M 129.535 25.946 L 125.761 25.946 L 125.761 25.747 L 129.535 25.747 L 129.535 25.946 Z M 125.761 14.766 L 129.535 14.766 L 129.535 14.965 L 125.761 14.965 L 125.761 14.766 Z M 129.535 33.733 L 125.761 33.733 L 125.761 33.533 L 129.535 33.533 L 129.535 33.733 Z M 129.535 23.351 L 125.761 23.351 L 125.761 23.151 L 129.535 23.151 L 129.535 23.351 Z M 125.761 17.361 L 131.703 17.361 L 131.703 17.561 L 125.761 17.561 L 125.761 17.361 Z M 129.535 20.755 L 125.761 20.755 L 125.761 20.556 L 129.535 20.556 L 129.535 20.755 Z" style="" transform="matrix(-1, 0, 0, -1, 257.464005, 119.577)"/>
    </g>
  </g>
</svg>